<?xml version="1.0" standalone="no"?>
<!DOCTYPE svg PUBLIC "-//W3C//DTD SVG 20010904//EN"
 "http://www.w3.org/TR/2001/REC-SVG-20010904/DTD/svg10.dtd">
<svg version="1.0" xmlns="http://www.w3.org/2000/svg"
 width="512.000000pt" height="512.000000pt" viewBox="0 0 512.000000 512.000000"
 preserveAspectRatio="xMidYMid meet">

<g transform="translate(0.000000,512.000000) scale(0.100000,-0.100000)"
fill="#000000" stroke="none">
<path d="M701 5003 c-83 -29 -171 -145 -171 -223 0 -15 -18 -18 -162 -22 -136
-4 -170 -8 -208 -25 -54 -25 -104 -72 -133 -127 l-22 -41 -3 -1890 c-1 -1039
0 -1900 3 -1913 3 -12 14 -31 25 -42 18 -18 34 -20 170 -20 l150 0 0 -134 c0
-73 5 -148 11 -166 22 -63 -39 -60 1244 -60 l1166 0 77 -46 c142 -86 298 -148
475 -186 85 -18 135 -22 297 -22 213 -1 279 9 460 66 747 238 1182 1019 994
1786 -98 400 -358 740 -729 951 -49 28 -93 51 -97 51 -4 0 -9 363 -10 808 -3
897 1 838 -72 920 -62 69 -116 85 -299 90 l-157 4 -6 27 c-28 135 -116 218
-240 229 -134 11 -259 -86 -280 -217 l-7 -41 -178 0 c-179 0 -179 0 -179 23 0
73 -65 168 -144 210 -58 31 -174 31 -232 0 -79 -42 -144 -137 -144 -210 0 -23
0 -23 -179 -23 l-178 0 -7 41 c-21 131 -146 228 -280 217 -123 -11 -212 -95
-240 -230 l-6 -28 -173 0 -174 0 -11 50 c-37 160 -196 248 -351 193z m154
-188 c24 -23 25 -28 25 -175 l0 -150 -85 0 -85 0 0 150 c0 147 1 152 25 175
33 34 87 34 120 0z m882 1 l28 -24 0 -149 0 -148 -87 -3 -88 -3 0 149 c0 144
1 150 25 176 32 34 83 35 122 2z m884 -2 c23 -24 24 -33 27 -175 l3 -149 -91
0 -91 0 3 149 c3 142 4 151 27 175 18 19 35 26 61 26 26 0 43 -7 61 -26z m884
0 c24 -26 25 -32 25 -176 l0 -149 -87 3 -88 3 0 148 0 149 28 24 c39 33 90 32
122 -2z m-2975 -329 c0 -166 13 -175 265 -175 252 0 265 9 265 175 l0 95 174
0 174 0 4 -105 c3 -99 5 -106 31 -132 l27 -28 167 -3 c199 -4 247 1 279 33 22
22 24 32 24 130 l0 105 178 -2 177 -3 3 -106 c2 -99 4 -108 28 -130 25 -24 28
-24 235 -24 l209 0 26 27 c25 25 28 34 32 132 l5 106 173 0 174 0 0 -105 c0
-98 2 -108 24 -130 32 -32 80 -37 279 -33 l167 3 27 28 c27 26 28 33 31 133
l4 105 150 -3 150 -3 24 -28 c24 -28 24 -29 24 -263 l0 -234 -1940 0 -1940 0
0 239 0 239 31 26 c30 25 34 26 175 26 l144 0 0 -95z m3530 -1044 l0 -429 -72
19 c-533 140 -1121 -41 -1491 -459 -228 -258 -359 -579 -374 -922 -11 -264 36
-489 163 -767 5 -10 -209 -13 -1050 -13 l-1056 0 0 1500 0 1500 1940 0 1940 0
0 -429z m-245 -555 c549 -86 985 -500 1102 -1046 25 -119 25 -400 0 -520 -111
-520 -488 -908 -998 -1030 -712 -169 -1432 288 -1594 1010 -22 100 -31 355
-15 462 63 438 333 810 729 1003 106 52 254 100 364 119 109 18 301 19 412 2z
m-1360 -2248 c28 -33 60 -74 73 -90 l23 -28 -1010 0 -1011 0 0 90 0 90 938 0
937 0 50 -62z"/>
<path d="M715 3508 c-203 -72 -248 -331 -79 -460 151 -116 365 -40 415 147 25
92 -20 212 -101 271 -69 50 -163 67 -235 42z m140 -193 c54 -53 16 -145 -60
-145 -49 0 -85 36 -85 85 0 76 92 114 145 60z"/>
<path d="M1597 3506 c-129 -46 -203 -173 -177 -302 20 -95 97 -178 189 -204
113 -31 235 21 299 128 23 41 27 58 27 127 0 95 -21 143 -86 198 -72 62 -169
82 -252 53z m137 -188 c38 -35 39 -86 1 -123 -59 -60 -161 -2 -141 80 16 62
92 85 140 43z"/>
<path d="M2463 3499 c-62 -24 -137 -101 -153 -157 -16 -60 -12 -142 11 -192
42 -93 142 -160 239 -160 137 0 259 122 260 260 0 81 -15 123 -66 179 -77 85
-184 111 -291 70z m157 -184 c52 -55 15 -145 -60 -145 -26 0 -43 7 -60 25 -52
55 -15 145 60 145 26 0 43 -7 60 -25z"/>
<path d="M685 2786 c-204 -95 -202 -385 3 -478 60 -27 159 -26 217 2 62 30
120 97 139 161 20 66 20 92 0 158 -31 106 -134 181 -249 181 -42 0 -75 -7
-110 -24z m173 -182 c33 -37 30 -86 -9 -118 -43 -36 -92 -31 -126 13 -21 27
-16 85 10 108 43 40 87 39 125 -3z"/>
<path d="M1570 2790 c-82 -38 -134 -105 -151 -193 -26 -141 69 -281 209 -305
163 -28 299 79 310 245 3 50 0 71 -20 115 -47 101 -120 150 -233 155 -55 3
-80 -1 -115 -17z m168 -183 c14 -13 22 -32 22 -53 0 -46 -9 -63 -42 -80 -83
-43 -165 56 -108 129 33 41 85 43 128 4z"/>
<path d="M727 2096 c-187 -52 -256 -278 -131 -425 56 -65 104 -86 199 -86 69
0 86 4 127 27 155 92 182 292 56 418 -63 63 -165 90 -251 66z m106 -178 c33
-17 46 -39 47 -76 0 -76 -96 -113 -147 -56 -64 70 17 176 100 132z"/>
<path d="M1617 2099 c-57 -14 -89 -33 -134 -82 -74 -80 -88 -190 -39 -291 98
-201 382 -192 475 14 38 84 21 199 -39 272 -56 68 -178 108 -263 87z m118
-194 c36 -35 37 -87 2 -122 -35 -35 -87 -34 -122 2 -35 34 -33 78 4 116 38 37
82 39 116 4z"/>
<path d="M3525 2718 c-546 -39 -988 -475 -1045 -1028 -45 -440 168 -864 549
-1094 357 -215 816 -218 1171 -7 382 227 600 652 559 1091 -24 264 -128 494
-309 684 -245 259 -564 381 -925 354z m5 -268 c0 -62 5 -100 15 -120 32 -62
131 -53 155 13 5 16 10 68 10 115 l0 85 55 -7 c74 -8 205 -51 290 -93 103 -51
181 -111 271 -206 152 -161 242 -362 261 -583 l6 -72 -106 -4 c-95 -3 -108 -5
-131 -27 -19 -18 -26 -34 -26 -60 1 -69 39 -91 161 -91 94 0 93 5 46 -130
-122 -354 -408 -591 -789 -654 l-36 -7 -4 107 c-3 102 -4 107 -31 130 -36 31
-78 31 -114 0 -27 -23 -28 -28 -31 -130 l-4 -106 -41 6 c-325 50 -604 255
-743 547 -31 66 -74 195 -74 224 0 7 32 12 94 15 84 3 97 6 120 27 36 34 36
88 0 122 -23 22 -36 24 -131 27 l-106 4 7 83 c6 89 40 219 80 308 94 214 294
407 518 501 76 32 196 64 246 65 l32 1 0 -90z"/>
<path d="M4094 1998 c-16 -12 -122 -100 -236 -195 -114 -95 -211 -173 -216
-173 -5 0 -33 36 -62 80 -63 95 -100 130 -141 130 -42 0 -79 -39 -79 -84 0
-28 21 -66 103 -188 113 -168 132 -184 191 -155 57 28 560 455 574 487 23 57
-22 120 -87 120 -10 0 -31 -10 -47 -22z"/>
</g>
</svg>
